<svg width="100" height="100" viewBox="0 0 100 100" fill="none" xmlns="http://www.w3.org/2000/svg">
<path d="M44.3108 68.5509H36.4993L53.6102 30.5031H61.3685L83.3151 79.2851C81.5117 81.7471 80.2661 82.86 77.7355 84.4927L57.4893 38.7397L44.3108 68.5509Z" fill="white"/>
<path d="M17.4438 75.8857L18.4218 70.5093H19.6861L18.7209 75.8857H17.4438ZM22.6451 70.5093L21.661 75.8702L21.6672 75.8857H20.9069C20.7536 75.8857 20.6373 75.8474 20.5582 75.7705C20.4661 75.6708 20.4011 75.5491 20.3693 75.4171L19.5534 72.6674L19.9209 70.5555C19.9943 70.5851 20.0571 70.636 20.1014 70.7015C20.1546 70.7844 20.1947 70.8751 20.22 70.9703L20.8814 73.2131L21.3676 70.5093H22.6451Z" fill="white"/>
<path d="M27.3713 70.5093H28.6422L27.8574 74.6782L27.7327 75.3462C27.7119 75.4889 27.6598 75.6252 27.5801 75.7454C27.5115 75.8377 27.4004 75.8839 27.2471 75.8839L23.7774 75.8915C23.6781 75.8974 23.579 75.8762 23.491 75.83C23.4242 75.7891 23.391 75.7072 23.3914 75.5843C23.3925 75.5327 23.3987 75.4812 23.4097 75.4307L23.5467 74.6857L26.5865 74.6782L27.3713 70.5093ZM24.3193 70.5093H25.5836L24.8611 74.4112H23.5902L24.3193 70.5093Z" fill="white"/>
<path d="M30.137 71.7612L30.3548 70.5093H34.7486L34.6068 71.3082C34.5734 71.4877 34.5124 71.6105 34.4179 71.6766C34.3156 71.7464 34.1926 71.7789 34.0693 71.7688L30.137 71.7612ZM32.2923 75.8857H31.0167L31.7061 72.0456H32.9708L32.2923 75.8857Z" fill="white"/>
<path d="M40.2712 70.5098C40.4273 70.5071 40.5834 70.5148 40.7385 70.5329C40.825 70.5401 40.9064 70.5768 40.969 70.6368C41.0186 70.6903 41.0437 70.7739 41.0437 70.8864C41.0387 71.0155 41.0229 71.144 40.9964 71.2705L40.747 72.6065L40.5764 73.4975C40.5433 73.6771 40.4803 73.7999 40.3874 73.8661C40.2853 73.9363 40.1623 73.9696 40.0387 73.9606L37.393 73.9525L37.5551 73.0696C37.5881 72.8905 37.6496 72.7672 37.7441 72.7005C37.8462 72.6304 37.9692 72.5971 38.0928 72.6061H39.6125L39.7992 71.631L37.5385 71.6233L36.7722 75.8858H35.4966L36.4746 70.5093H40.274L40.2712 70.5098ZM38.4461 74.1888H39.7482L39.9844 75.8863H39.0443C38.8987 75.8863 38.7953 75.8391 38.7329 75.7403C38.661 75.613 38.6184 75.4713 38.6082 75.3255L38.4461 74.1888Z" fill="white"/>
<path d="M43.0629 75.8857H41.7874L42.7625 70.5093H44.0287L43.0629 75.8857Z" fill="white"/>
<path d="M45.5229 71.7612L45.7407 70.5093H50.1346L49.9928 71.3082C49.9591 71.4877 49.8961 71.6105 49.8039 71.6766C49.7016 71.7463 49.5786 71.7788 49.4552 71.7688L45.5229 71.7612ZM47.6778 75.8857H46.3999L47.0915 72.0456H48.3558L47.6778 75.8857Z" fill="white"/>
<path d="M52.1555 75.8857H50.8799L51.8579 70.5093H53.1222L52.1555 75.8857Z" fill="white"/>
<path d="M58.7207 70.5008C58.8201 70.4951 58.9191 70.5163 59.0075 70.5622C59.0736 70.6033 59.1072 70.6851 59.1072 70.8078C59.1061 70.8597 59.0997 70.9113 59.0883 70.9619L58.9513 71.7065L58.4282 74.5355L58.2601 75.426C58.2265 75.6057 58.1656 75.7284 58.0711 75.7951C57.9689 75.8648 57.8458 75.8973 57.7224 75.8872L55.4301 75.8796L55.5922 74.9962C55.6252 74.817 55.6882 74.6941 55.7811 74.6277C55.8839 74.5575 56.0077 74.525 56.1316 74.5355H57.1654L57.6851 71.7088L55.9158 71.7168L55.1499 75.8872H53.8743L54.6467 71.7168L54.7709 71.0483C54.792 70.9057 54.8441 70.7694 54.9236 70.6491C54.9925 70.5568 55.1038 70.5106 55.2572 70.5106L58.7207 70.5008Z" fill="white"/>
<path d="M59.8542 75.8857L60.8322 70.5093H62.0965L61.1313 75.8857H59.8542ZM65.0554 70.5093L64.0714 75.8702L64.0775 75.8857H63.3173C63.1639 75.8857 63.0477 75.8474 62.9686 75.7705C62.8764 75.6708 62.8114 75.5491 62.7797 75.4171L61.9637 72.6674L62.3313 70.5555C62.4046 70.5851 62.4675 70.636 62.5118 70.7015C62.565 70.7844 62.605 70.8751 62.6304 70.9703L63.2918 73.2131L63.7774 70.5093H65.0554Z" fill="white"/>
<path d="M6.37695 25.4922C9.98885 19.0323 14.9954 13.4588 21.0324 9.17736C27.0693 4.89586 33.9848 2.01402 41.2756 0.741498C48.5665 -0.531018 56.0494 -0.162193 63.1797 1.82113C70.3101 3.80447 76.9087 7.35242 82.4954 12.2069C88.082 17.0613 92.5162 23.1 95.4753 29.8838C98.4344 36.6676 99.844 44.0257 99.6016 51.4228C99.3592 58.8199 97.4707 66.07 94.0737 72.6453C90.6767 79.2208 85.8565 84.9563 79.964 89.4344L77.7349 84.4917C82.9815 80.5044 86.1994 75.9945 89.224 70.1399C92.2486 64.2853 93.93 57.8302 94.1459 51.244C94.3617 44.6579 93.1067 38.1064 90.4719 32.0662C87.8373 26.0262 83.8892 20.6495 78.9149 16.3272C73.9408 12.0051 68.0657 8.84602 61.7169 7.08012C55.3682 5.31422 48.7058 4.98583 42.2142 6.11884C35.7226 7.25184 29.5653 9.81776 24.1901 13.6298C18.815 17.442 16.1995 20.0336 12.4266 25.4922H6.37695Z" fill="white"/>
<path d="M49.8887 68.5479L57.4345 51.437L65.0866 68.5479H49.8887Z" fill="white"/>
<mask id="mask0_114_13633" style="mask-type:alpha" maskUnits="userSpaceOnUse" x="0" y="30" width="76" height="70">
<path d="M49.0788 30.9275H10.1275L5.82324 37.8888H45.9435L49.0788 30.9275Z" fill="#5200FF"/>
<path d="M20.7551 53.2976V46.6021H42.0109L38.8757 53.2976H20.7551Z" fill="#5200FF"/>
<path d="M20.8621 68.9749V61.9604H35.1034L31.9151 68.9749H20.8621Z" fill="#5200FF"/>
<path d="M75.9678 92.3013C66.812 98.0224 56.4989 100.752 45.7429 99.821C34.9869 98.89 24.8248 94.4882 16.7882 87.279C8.75171 80.0697 3.27607 70.4437 1.18653 59.8517C-0.902996 49.2596 -0.446669 40.6497 4.28268 30.9287L10.1185 30.9288C5.93674 39.5842 4.68149 49.3643 6.54195 58.7951C8.40241 68.2261 13.2777 76.7968 20.4333 83.2157C27.5888 89.6345 36.6368 93.5538 46.2137 94.3827C55.7905 95.2117 65.7434 92.7188 73.8954 87.625L75.9678 92.3013Z" fill="#5200FF"/>
<path d="M24.0198 30.9275H17.3242V68.9753H24.0198V30.9275Z" fill="#5200FF"/>
</mask>
<g mask="url(#mask0_114_13633)">
<path d="M77.2647 30.9275H0V100.009H77.2647V30.9275Z" fill="white"/>
</g>
</svg>
