<svg width="72" height="72" viewBox="0 0 72 72" fill="none" xmlns="http://www.w3.org/2000/svg">
<path d="M31.9035 49.3562H26.2793L38.5991 21.9619H44.1851L59.9865 57.0848C58.6881 58.8574 57.7912 59.6587 55.9692 60.8343L41.3921 27.8922L31.9035 49.3562Z" fill="#1C2C3C"/>
<path d="M12.5593 54.6376L13.2635 50.7666H14.1738L13.4788 54.6376H12.5593ZM16.3042 50.7666L15.5957 54.6264L15.6001 54.6376H15.0527C14.9423 54.6376 14.8586 54.61 14.8017 54.5547C14.7353 54.4829 14.6885 54.3953 14.6656 54.3002L14.0782 52.3204L14.3428 50.7999C14.3957 50.8212 14.4409 50.8578 14.4727 50.905C14.5111 50.9647 14.5399 51.03 14.5581 51.0985L15.0344 52.7134L15.3844 50.7666H16.3042Z" fill="#1C2C3C"/>
<path d="M19.7073 50.7666H20.6224L20.0573 53.7682L19.9676 54.2492C19.9526 54.3519 19.9151 54.4501 19.8577 54.5366C19.8083 54.603 19.7283 54.6363 19.6179 54.6363L17.1197 54.6417C17.0483 54.646 16.9769 54.6307 16.9136 54.5975C16.8654 54.5681 16.8416 54.5091 16.8418 54.4206C16.8426 54.3834 16.8471 54.3464 16.855 54.31L16.9537 53.7736L19.1423 53.7682L19.7073 50.7666ZM17.5099 50.7666H18.4202L17.9 53.576H16.985L17.5099 50.7666Z" fill="#1C2C3C"/>
<path d="M21.6985 51.668L21.8554 50.7666H25.0189L24.9168 51.3418C24.8927 51.4711 24.8488 51.5595 24.7807 51.6071C24.7071 51.6573 24.6185 51.6807 24.5297 51.6734L21.6985 51.668ZM23.2503 54.6376H22.3319L22.8282 51.8728H23.7388L23.2503 54.6376Z" fill="#1C2C3C"/>
<path d="M28.9953 50.767C29.1077 50.765 29.2201 50.7706 29.3318 50.7836C29.394 50.7888 29.4527 50.8152 29.4977 50.8584C29.5335 50.8969 29.5515 50.9571 29.5515 51.0381C29.5479 51.1311 29.5365 51.2236 29.5175 51.3146L29.3379 52.2766L29.2151 52.9181C29.1913 53.0475 29.1459 53.1358 29.079 53.1835C29.0055 53.234 28.9169 53.258 28.8279 53.2515L26.923 53.2457L27.0397 52.61C27.0635 52.4811 27.1078 52.3923 27.1758 52.3443C27.2493 52.2938 27.3379 52.2699 27.4269 52.2763H28.5211L28.6555 51.5742L27.0278 51.5687L26.4761 54.6377H25.5576L26.2618 50.7666H28.9974L28.9953 50.767ZM27.6813 53.4158H28.6187L28.7888 54.638H28.1119C28.0071 54.638 27.9327 54.604 27.8877 54.5329C27.836 54.4413 27.8053 54.3393 27.798 54.2343L27.6813 53.4158Z" fill="#1C2C3C"/>
<path d="M31.0053 54.6376H30.0869L30.789 50.7666H31.7007L31.0053 54.6376Z" fill="#1C2C3C"/>
<path d="M32.7766 51.668L32.9334 50.7666H36.097L35.9949 51.3418C35.9706 51.4711 35.9253 51.5595 35.8589 51.6071C35.7852 51.6572 35.6966 51.6806 35.6078 51.6734L32.7766 51.668ZM34.3281 54.6376H33.408L33.906 51.8728H34.8163L34.3281 54.6376Z" fill="#1C2C3C"/>
<path d="M37.552 54.6376H36.6335L37.3377 50.7666H38.248L37.552 54.6376Z" fill="#1C2C3C"/>
<path d="M42.2785 50.7604C42.35 50.7564 42.4213 50.7716 42.485 50.8046C42.5326 50.8342 42.5568 50.8931 42.5568 50.9815C42.5559 51.0188 42.5513 51.056 42.5432 51.0924L42.4445 51.6285L42.0679 53.6654L41.9468 54.3066C41.9227 54.4359 41.8788 54.5243 41.8108 54.5723C41.7372 54.6225 41.6486 54.6459 41.5597 54.6386L39.9092 54.6332L40.0259 53.9971C40.0497 53.8681 40.0951 53.7796 40.162 53.7318C40.236 53.6813 40.3251 53.6579 40.4144 53.6654H41.1587L41.5329 51.6302L40.2589 51.636L39.7075 54.6386H38.7891L39.3452 51.636L39.4347 51.1546C39.4498 51.0519 39.4873 50.9539 39.5445 50.8672C39.5942 50.8007 39.6743 50.7675 39.7847 50.7675L42.2785 50.7604Z" fill="#1C2C3C"/>
<path d="M43.095 54.6376L43.7991 50.7666H44.7094L44.0144 54.6376H43.095ZM46.8398 50.7666L46.1313 54.6264L46.1357 54.6376H45.5884C45.4779 54.6376 45.3943 54.61 45.3373 54.5547C45.2709 54.4829 45.2241 54.3953 45.2013 54.3002L44.6137 52.3204L44.8784 50.7999C44.9312 50.8212 44.9765 50.8578 45.0084 50.905C45.0467 50.9647 45.0755 51.03 45.0938 51.0985L45.57 52.7134L45.9196 50.7666H46.8398Z" fill="#1C2C3C"/>
<path d="M4.59131 18.3543C7.19186 13.7032 10.7966 9.69031 15.1432 6.60766C19.4897 3.525 24.4689 1.45008 29.7182 0.533876C34.9676 -0.382331 40.3552 -0.116778 45.4891 1.31121C50.6229 2.7392 55.3739 5.29371 59.3963 8.7889C63.4186 12.284 66.6112 16.6319 68.7418 21.5162C70.8723 26.4005 71.8872 31.6983 71.7127 37.0242C71.5381 42.3501 70.1784 47.5701 67.7326 52.3044C65.2868 57.0387 61.8163 61.1682 57.5737 64.3924L55.9688 60.8337C59.7463 57.9629 62.0632 54.7157 64.2409 50.5005C66.4185 46.2852 67.6292 41.6375 67.7846 36.8954C67.94 32.1535 67.0364 27.4365 65.1394 23.0876C63.2424 18.7388 60.3998 14.8675 56.8184 11.7555C53.237 8.64359 49.0069 6.3691 44.4358 5.09766C39.8648 3.82622 35.0679 3.58978 30.394 4.40554C25.72 5.2213 21.2868 7.06875 17.4167 9.81343C13.5466 12.5581 11.6635 14.4241 8.947 18.3543H4.59131Z" fill="#1C2C3C"/>
<path d="M35.9197 49.3544L41.3526 37.0347L46.8621 49.3544H35.9197Z" fill="#1C2C3C"/>
<mask id="mask0_114_13758" style="mask-type:alpha" maskUnits="userSpaceOnUse" x="0" y="22" width="55" height="50">
<path d="M35.3367 22.2676H7.29195L4.19287 27.2797H33.0793L35.3367 22.2676Z" fill="#5200FF"/>
<path d="M14.9438 38.374V33.5532H30.2479L27.9906 38.374H14.9438Z" fill="#5200FF"/>
<path d="M15.0208 49.6617V44.6113H25.2745L22.9789 49.6617H15.0208Z" fill="#5200FF"/>
<path d="M54.6965 66.4566C48.1044 70.5757 40.679 72.5411 32.9347 71.8708C25.1904 71.2004 17.8738 68.0311 12.0875 62.8405C6.30119 57.6499 2.35876 50.7192 0.854297 43.093C-0.650154 35.4667 -0.3216 29.2676 3.08351 22.2686L7.28529 22.2686C4.27443 28.5005 3.37065 35.5421 4.71018 42.3323C6.0497 49.1225 9.55992 55.2934 14.7119 59.915C19.8638 64.5365 26.3783 67.3583 33.2737 67.9552C40.1689 68.5521 47.335 66.7572 53.2044 63.0897L54.6965 66.4566Z" fill="#5200FF"/>
<path d="M17.2942 22.2676H12.4734V49.6619H17.2942V22.2676Z" fill="#5200FF"/>
</mask>
<g mask="url(#mask0_114_13758)">
<path d="M55.6303 22.2676H0V72.0058H55.6303V22.2676Z" fill="url(#paint0_linear_114_13758)"/>
</g>
<defs>
<linearGradient id="paint0_linear_114_13758" x1="27.8152" y1="22.2676" x2="27.8152" y2="72.0058" gradientUnits="userSpaceOnUse">
<stop stop-color="#6303E2"/>
<stop offset="1" stop-color="#8B00A7"/>
</linearGradient>
</defs>
</svg>
