<svg width="34" height="35" viewBox="0 0 34 35" fill="none" xmlns="http://www.w3.org/2000/svg">
<g filter="url(#filter0_d_866_1468)">
<path d="M21.2881 14.3667C21.2339 13.6997 21.1827 13.1219 21.1332 12.544C20.9019 9.47712 20.6716 6.41021 20.4423 3.3433C20.2874 1.4156 18.7865 -0.0297787 16.9587 0.000466C15.0999 0.027527 13.6733 1.50792 13.5432 3.4595C13.3744 6.02393 13.1637 8.58676 12.9716 11.1496C12.8942 12.1779 12.8167 13.2062 12.6618 14.2982C12.6185 14.2218 12.5782 14.139 12.5286 14.0722C11.9694 13.2269 11.3498 12.431 10.8371 11.5587C10.3287 10.701 9.51133 10.0843 8.56274 9.84287C7.61416 9.6014 6.61116 9.75467 5.77198 10.2693C5.35908 10.5248 4.99935 10.8617 4.71345 11.2604C4.42755 11.6592 4.22111 12.1121 4.10597 12.5931C3.99083 13.0741 3.96926 13.5737 4.04251 14.0633C4.11576 14.5528 4.28238 15.0227 4.5328 15.4459C7.1981 19.8652 10.8049 23.605 15.0813 26.3834C16.353 27.2111 17.7037 27.2031 18.9754 26.3738C23.1571 23.6606 26.7015 20.0285 29.3536 15.7388C29.6332 15.3209 29.8279 14.8494 29.9263 14.3524C30.0246 13.8554 30.0246 13.3431 29.9261 12.8462C29.8276 12.3492 29.6326 11.8778 29.353 11.4599C29.0733 11.0421 28.7145 10.6864 28.2982 10.4142C27.8818 10.1419 27.4163 9.95868 26.9295 9.87535C26.4427 9.79202 25.9446 9.81033 25.4648 9.92919C24.985 10.048 24.5335 10.265 24.1371 10.5671C23.7407 10.8692 23.4076 11.2503 23.1577 11.6876C22.6574 12.4835 22.1152 13.2333 21.5886 14.0021C21.5158 14.1088 21.4182 14.2027 21.2881 14.3667Z" fill="#5A0563"/>
<path d="M20.8923 15.6697L21.6797 14.6775C21.7298 14.6144 21.7736 14.564 21.8193 14.5116C21.8252 14.5047 21.8313 14.4977 21.8373 14.4907C21.8863 14.4344 21.9466 14.3645 22.0013 14.2844M20.8923 15.6697L29.3536 15.7388C29.6332 15.3209 29.8279 14.8494 29.9263 14.3524C30.0246 13.8554 30.0246 13.3431 29.9261 12.8462C29.8276 12.3492 29.6326 11.8778 29.353 11.4599C29.0733 11.0421 28.7145 10.6864 28.2982 10.4142C27.8818 10.1419 27.4163 9.95868 26.9295 9.87535C26.4427 9.79202 25.9446 9.81033 25.4648 9.92919C24.985 10.048 24.5335 10.265 24.1371 10.5671C23.7407 10.8692 23.4076 11.2503 23.1577 11.6876C22.7975 12.2605 22.4157 12.8095 22.0336 13.359C21.9361 13.4993 21.8385 13.6396 21.7412 13.7804C21.7507 13.8933 21.7603 14.0084 21.77 14.126L22.0015 14.284C22.0015 14.2842 22.0014 14.2843 22.0013 14.2844M20.8923 15.6697L20.7897 14.4072C20.7492 13.9093 20.7105 13.4617 20.6728 13.0252C20.6601 12.8783 20.6475 12.7326 20.635 12.5868L20.635 12.5868L20.6346 12.5816C20.4033 9.51514 20.173 6.44864 19.9438 3.38214C19.8074 1.69187 18.5052 0.474945 16.967 0.500399L16.966 0.500413C15.3996 0.523218 14.1571 1.76788 14.0421 3.49276C13.9249 5.27248 13.7875 7.05321 13.6503 8.83041C13.5896 9.61675 13.529 10.4024 13.4702 11.187L13.4702 11.1871L13.4697 11.1938C13.3926 12.2181 13.3141 13.2601 13.1569 14.3684L12.9509 15.8204L12.227 14.545C12.2002 14.4978 12.1829 14.4658 12.1701 14.4421C12.1512 14.4072 12.1421 14.3904 12.127 14.37L12.119 14.3592L12.1116 14.3481C11.9208 14.0596 11.7122 13.7628 11.4992 13.4596C11.1247 12.9266 10.7365 12.3741 10.4065 11.8129M20.8923 15.6697L10.4065 11.8129M22.0013 14.2844C22.1444 14.0754 22.2905 13.8654 22.4377 13.6537C22.8222 13.1009 23.2142 12.5372 23.581 11.9537L23.5866 11.9448L23.5918 11.9357C23.8089 11.5559 24.0976 11.2259 24.4402 10.9648C24.7827 10.7037 25.1721 10.5168 25.585 10.4145C25.9979 10.3122 26.4264 10.2965 26.8451 10.3682C27.2639 10.4399 27.6651 10.5976 28.0245 10.8327C28.384 11.0677 28.6947 11.3754 28.9374 11.7381C29.1802 12.1007 29.3498 12.5106 29.4356 12.9434C29.5214 13.3762 29.5215 13.8225 29.4358 14.2553C29.3501 14.6881 29.1806 15.0981 28.938 15.4608L28.933 15.4683L28.9283 15.4759C26.3146 19.7035 22.8223 23.2818 18.7033 25.9544L18.7023 25.955C18.1352 26.3248 17.5725 26.4982 17.0267 26.5C16.4813 26.5018 15.9197 26.3325 15.3541 25.9643L15.3537 25.9641C11.1421 23.2278 7.5887 19.5441 4.96208 15.1896C4.7453 14.8227 4.60068 14.4148 4.53701 13.9893C4.47324 13.563 4.49203 13.1281 4.59223 12.7095C4.69242 12.2909 4.87192 11.8975 5.11981 11.5518C5.3675 11.2063 5.67846 10.9153 6.03433 10.695C6.75895 10.2509 7.62287 10.1196 8.4394 10.3274C9.25634 10.5354 9.96441 11.0674 10.4065 11.8129M22.0013 14.2844C22.0012 14.2845 22.0011 14.2846 22.0011 14.2847L21.7701 14.1265C21.7755 14.1922 21.7809 14.2587 21.7864 14.3262L21.2881 14.3667L20.8964 14.0559C20.9614 13.9739 21.02 13.9067 21.0653 13.8546C21.0712 13.8478 21.0769 13.8413 21.0823 13.8351C21.1328 13.7769 21.1576 13.7467 21.1756 13.7203L21.1761 13.7196C21.1933 13.6944 21.2106 13.6692 21.2279 13.6441C21.2086 13.4171 21.1896 13.1977 21.1709 12.9814C21.1582 12.8347 21.1456 12.6894 21.1332 12.544L10.4065 11.8129" stroke="white"/>
</g>
<defs>
<filter id="filter0_d_866_1468" x="0" y="0" width="34" height="35" filterUnits="userSpaceOnUse" color-interpolation-filters="sRGB">
<feFlood flood-opacity="0" result="BackgroundImageFix"/>
<feColorMatrix in="SourceAlpha" type="matrix" values="0 0 0 0 0 0 0 0 0 0 0 0 0 0 0 0 0 0 127 0" result="hardAlpha"/>
<feOffset dy="4"/>
<feGaussianBlur stdDeviation="2"/>
<feComposite in2="hardAlpha" operator="out"/>
<feColorMatrix type="matrix" values="0 0 0 0 0 0 0 0 0 0 0 0 0 0 0 0 0 0 0.25 0"/>
<feBlend mode="normal" in2="BackgroundImageFix" result="effect1_dropShadow_866_1468"/>
<feBlend mode="normal" in="SourceGraphic" in2="effect1_dropShadow_866_1468" result="shape"/>
</filter>
</defs>
</svg>
