<svg width="23" height="23" viewBox="0 0 23 23" fill="none" xmlns="http://www.w3.org/2000/svg">
<path d="M15.875 6.25V4.5H6.25V6.25H9.3125C10.4517 6.25 11.4134 6.98325 11.7756 8H6.25V9.75H11.7756C11.596 10.2603 11.2628 10.7025 10.8218 11.0159C10.3807 11.3292 9.85351 11.4983 9.3125 11.5H6.25V13.6122L11.1378 18.5H13.6122L8.36225 13.25H9.3125C10.3205 13.2487 11.2971 12.8998 12.0778 12.2622C12.8585 11.6246 13.3955 10.7374 13.5982 9.75H15.875V8H13.5982C13.4641 7.36318 13.1877 6.76492 12.7898 6.25H15.875Z" fill="#2E0158"/>
<rect x="0.9" y="0.9" width="21.2" height="21.2" rx="1.1" stroke="#2E0158" stroke-width="1.8"/>
</svg>
