<svg width="21" height="26" viewBox="0 0 21 26" fill="none" xmlns="http://www.w3.org/2000/svg">
<path d="M19.0556 4.5962H15.539C15.4364 3.34411 14.861 2.17609 13.9274 1.32446C12.9937 0.472836 11.7701 0 10.5 0C9.22989 0 8.00632 0.472836 7.07264 1.32446C6.13896 2.17609 5.56359 3.34411 5.46097 4.5962H1.94444C1.42875 4.5962 0.934169 4.79882 0.569515 5.15948C0.20486 5.52014 0 6.0093 0 6.51935V24.0769C0 24.5869 0.20486 25.0761 0.569515 25.4367C0.934169 25.7974 1.42875 26 1.94444 26H19.0556C19.5713 26 20.0658 25.7974 20.4305 25.4367C20.7951 25.0761 21 24.5869 21 24.0769V6.51935C21 6.0093 20.7951 5.52014 20.4305 5.15948C20.0658 4.79882 19.5713 4.5962 19.0556 4.5962ZM10.5 2.28842C11.1546 2.28849 11.7872 2.52181 12.2819 2.94565C12.7767 3.36949 13.1005 3.95545 13.194 4.5962H7.80597C7.89948 3.95545 8.22328 3.36949 8.71806 2.94565C9.21283 2.52181 9.84545 2.28849 10.5 2.28842ZM18.6667 23.6922H2.33333V6.90398H5.44444V8.05787C5.44444 8.3639 5.56736 8.65739 5.78615 8.87379C6.00495 9.09019 6.30169 9.21176 6.61111 9.21176C6.92053 9.21176 7.21728 9.09019 7.43607 8.87379C7.65486 8.65739 7.77778 8.3639 7.77778 8.05787V6.90398H13.2222V8.05787C13.2222 8.3639 13.3451 8.65739 13.5639 8.87379C13.7827 9.09019 14.0795 9.21176 14.3889 9.21176C14.6983 9.21176 14.9951 9.09019 15.2138 8.87379C15.4326 8.65739 15.5556 8.3639 15.5556 8.05787V6.90398H18.6667V23.6922Z" fill="#2E0158"/>
</svg>
